<svg width="480pt" height="290pt" viewBox="0 0 480 290" version="1.1" xmlns="https://www.w3.org/2000/svg" xmlns:xlink="https://www.w3.org/1999/xlink">
  <g id="surface2" transform="matrix(1,0,0,1,-0.5,-0.5)">
    <path style=" stroke:none;fill-rule:evenodd;fill:rgb(99.215686%,72.54902%,7.45098%);fill-opacity:1;" d="M 240.500000 152.250000 L 203.101562 114.851562 L 212.500000 105.449219 L 203.398438 96.300781 L 184.851562 114.851562 L 240.500000 170.500000 L 269.398438 141.550781 L 260.300781 132.449219 L 240.500000 152.250000 "/>
    <path style=" stroke:none;fill-rule:evenodd;fill:rgb(99.215686%,72.54902%,7.45098%);fill-opacity:1;" d="M 277.550781 96.351562 L 240.449219 59.250000 L 211.550781 88.199219 L 220.699219 97.300781 L 240.449219 77.500000 L 260.300781 97.300781 L 268.449219 105.449219 L 277.851562 114.898438 L 268.449219 124.300781 L 277.550781 133.449219 L 296.101562 114.898438 L 277.550781 96.351562 "/>
    <path style=" stroke:none;fill-rule:evenodd;fill:rgb(0%,23.921569%,47.45098%);fill-opacity:1;" d="M 284.050781 73.500000 L 269.398438 88.148438 L 277.550781 96.300781 L 284.050781 89.851562 L 309.050781 114.851562 L 284.050781 139.851562 L 277.550781 133.398438 L 268.449219 124.250000 L 259.050781 114.851562 L 268.449219 105.449219 L 260.300781 97.250000 L 242.699219 114.851562 L 260.300781 132.449219 L 269.398438 141.550781 L 284.050781 156.199219 L 325.398438 114.851562 L 284.050781 73.500000 "/>
    <path style=" stroke:none;fill-rule:evenodd;fill:rgb(0%,23.921569%,47.45098%);fill-opacity:1;" d="M 211.550781 88.148438 L 196.898438 73.500000 L 155.550781 114.851562 L 196.898438 156.199219 L 211.550781 141.550781 L 203.351562 133.398438 L 196.898438 139.851562 L 171.898438 114.851562 L 196.898438 89.851562 L 203.351562 96.300781 L 212.500000 105.449219 L 221.898438 114.851562 L 212.500000 124.250000 L 220.648438 132.449219 L 238.250000 114.851562 L 220.648438 97.250000 L 211.550781 88.148438 "/>
  </g>
  <g id="surface4">
    <text style="fill:rgb(0,61,121)" font-family="Helvetica" font-size="50" transform="matrix(1,0,0,1,191.623536,221.25)" ><![CDATA[S3M]]></text>
  </g>
</svg>